<svg xmlns="http://www.w3.org/2000/svg" viewBox="0 0 800 750" shape-rendering="crispEdges">
  <g style="fill:var(--av-light)">
    <rect x="200" y="50" width="350" height="200"/>
    <rect x="150" y="100" width="50" height="200"/>
    <rect x="550" y="100" width="50" height="150"/>
    <rect x="100" y="150" width="50" height="150"/>
    <rect x="600" y="150" width="50" height="100"/>
    <rect x="650" y="200" width="50" height="50"/>
    <rect x="200" y="250" width="50" height="50"/>
    <rect x="400" y="250" width="150" height="50"/>
    <rect x="250" y="300" width="150" height="50"/>
    <rect x="550" y="300" width="150" height="50"/>
    <rect x="50" y="350" width="150" height="100"/>
    <rect x="250" y="350" width="100" height="100"/>
    <rect x="450" y="350" width="50" height="250"/>
    <rect x="550" y="350" width="100" height="100"/>
    <rect x="350" y="400" width="50" height="50"/>
    <rect x="650" y="400" width="50" height="50"/>
    <rect x="100" y="450" width="150" height="50"/>
    <rect x="400" y="450" width="50" height="250"/>
    <rect x="500" y="450" width="50" height="150"/>
    <rect x="150" y="500" width="250" height="100"/>
    <rect x="550" y="500" width="150" height="200"/>
    <rect x="700" y="550" width="50" height="100"/>
    <rect x="200" y="600" width="200" height="50"/>
    <rect x="250" y="650" width="150" height="50"/>
    <rect x="450" y="650" width="100" height="50"/>
  </g>

  <g style="fill:var(--av-dark)">
    <rect x="200" y="0" width="350" height="50"/>
    <rect x="150" y="50" width="50" height="50"/>
    <rect x="550" y="50" width="50" height="50"/>
    <rect x="100" y="100" width="50" height="50"/>
    <rect x="600" y="100" width="50" height="50"/>
    <rect x="50" y="150" width="50" height="200"/>
    <rect x="650" y="150" width="50" height="50"/>
    <rect x="700" y="200" width="50" height="350"/>
    <rect x="250" y="250" width="150" height="50"/>
    <rect x="550" y="250" width="150" height="50"/>
    <rect x="100" y="300" width="150" height="50"/>
    <rect x="400" y="300" width="150" height="50"/>
    <rect x="0" y="350" width="50" height="100"/>
    <rect x="200" y="350" width="50" height="100"/>
    <rect x="350" y="350" width="100" height="50"/>
    <rect x="500" y="350" width="50" height="100"/>
    <rect x="650" y="350" width="50" height="50"/>
    <rect x="400" y="400" width="50" height="50"/>
    <rect x="50" y="450" width="50" height="50"/>
    <rect x="250" y="450" width="150" height="50"/>
    <rect x="550" y="450" width="150" height="50"/>
    <rect x="100" y="500" width="50" height="100"/>
    <rect x="750" y="550" width="50" height="100"/>
    <rect x="150" y="600" width="50" height="50"/>
    <rect x="450" y="600" width="100" height="50"/>
    <rect x="200" y="650" width="50" height="50"/>
    <rect x="700" y="650" width="50" height="50"/>
    <rect x="250" y="700" width="450" height="50"/>
  </g>
</svg>
